<?xml version="1.0" encoding="utf-8"?>
<!-- Generator: Adobe Illustrator 24.2.1, SVG Export Plug-In . SVG Version: 6.00 Build 0)  -->
<svg version="1.1" id="Layer_1" xmlns="http://www.w3.org/2000/svg" xmlns:xlink="http://www.w3.org/1999/xlink" x="0px" y="0px"
	 viewBox="0 0 326.14 326.14" style="enable-background:new 0 0 326.14 326.14;" xml:space="preserve">
<style type="text/css">
	.st0{fill:#FFFFFF;}
</style>
<circle class="st0" cx="163.07" cy="163.07" r="161.64"/>
<g>
	<path d="M73.56,250.74c-1.5-17.88,3.05-33.93,12.67-48.97c16.05-25.1,31.72-50.44,47.53-75.68c3.18-5.08,6.25-10.23,9.49-15.27
		c2.89-4.5,5.84-8.81,4.98-14.72c-0.27-1.85,0.81-4.57,2.21-5.86c3.25-2.97,4.88-6.22,5.29-10.64c0.39-4.17,3.47-6.97,7.54-7.7
		c3.96-0.71,5.83-3.15,7.75-6.28c4.09-6.66,8.39-13.2,12.93-19.56c4.13-5.79,10.19-7.98,17.1-7.28
		c18.81,1.91,34.31,10.2,46.06,25.05c6.48,8.19,7.82,17.17,2.3,26.51c-3.73,6.3-7.84,12.38-11.39,18.79
		c-1.35,2.45-1.66,5.49-2.3,8.3c-0.11,0.48,0.49,2.19,0.08,3.96c-0.55,2.34-2.18,4.87-2.87,5.86c-1.29,1.85-4.9,4.34-4.9,4.34
		c-1.7,2.39-2.16,5.66-3.9,8.02c-1.04,1.42-4.04,3.39-4.39,3.35c-2.83-0.27-4.68,3.67-6.19,6.03
		c-22.32,34.92-42.47,71.24-67.78,104.2c-3.19,4.16-6.96,8.17-11.24,11.13c-14.31,9.9-29.62,17.95-46.58,22.43
		c-7.51,1.99-10.7,0.06-11.71-7.73C75.04,269.63,74.43,260.17,73.56,250.74z M115.37,240.23c2.81-0.31,5.73-0.23,8.39-1.04
		c2.17-0.65,4.78-1.88,5.9-3.66c21.07-33.71,41.93-67.56,62.91-101.33c1.6-2.58,1.23-4.1-1.34-5.64
		c-5.57-3.33-11.22-6.58-16.45-10.39c-3.87-2.82-5.7-1.92-8.06,1.87c-19.3,30.89-38.55,61.81-58.37,92.36
		c-4.84,7.46-6.39,13.82-2.16,21.96C108.4,238.62,110.15,241.56,115.37,240.23z M244.2,69.72c-9.97-15.5-24.82-23.01-42.65-25.53
		c-5.62-0.79-10.36,0.7-13.59,5.39c-4.72,6.85-9.08,13.95-13.7,20.87c-2.06,3.08-1.08,4.59,2.05,6.01
		c18.31,8.29,35.19,18.91,50.59,31.83c2.59,2.17,4.27,1.83,5.93-0.97c4-6.73,8.24-13.31,12.07-20.13
		C246.25,84.78,245.93,72.4,244.2,69.72z M139.45,252.59c1.82-2.24,3.3-3.75,4.43-5.49c20.94-32.42,41.96-64.8,62.68-97.36
		c5.74-9.01,7.48-7.13-3.6-14.24c-3.69-2.37-5.38-1.34-7.34,2.08c-6.78,11.85-13.53,23.73-20.79,35.28
		c-13.2,21-26.8,41.75-40.08,62.7c-1.19,1.87-2.22,4.86-1.55,6.68C134.47,245.72,137.01,248.72,139.45,252.59z M152.96,105.21
		c-23.05,37.38-48.31,73.38-69.09,112.66c2.63,0.45,4.44,0.67,6.21,1.07c6.05,1.37,9.84-0.38,13.35-6.14
		c18.33-30.12,37.16-59.94,55.96-89.78c7.4-11.75,7.57-11.64-5.17-17.69C154.08,105.26,153.89,105.29,152.96,105.21z M87.49,222.9
		c-4.67-0.98-6.39,1.21-6.59,5c-0.52,9.79-1.16,19.58-1.25,29.38c-0.02,1.69,2.11,3.85,3.78,5.03c5.53,3.93,11.23,7.62,17.02,11.14
		c1.48,0.9,4.02,1.72,5.27,1.06c9.54-5.04,18.93-10.39,28.22-15.88c1-0.59,1.78-2.93,1.46-4.15c-2.09-7.92-6.38-10.96-14.48-10.75
		c-0.67,0.02-1.33,0.02-2,0.04c-13.01,0.38-13.55,0.58-17.88-11.76C98.47,224.64,94.21,222.02,87.49,222.9z M153.93,95.29
		c-0.3,1.92,1.4,5.1,3.17,6.23c18.23,11.65,36.67,22.95,54.99,34.45c3.11,1.95,5.87,3.49,8.44-0.56c2.35-3.71,1.39-6.59-2.21-8.84
		c-18.04-11.3-36.07-22.61-54.13-33.88c-0.69-0.43-3.53-2.25-5.88-1.74C155.96,91.46,154.08,94.31,153.93,95.29z M218.32,121.1
		c1.69,1.06,3.33,2.27,5.14,3.06c3.73,1.62,6.59-0.44,6.58-6.17c-0.27-1.84-2.72-3.69-4.88-5.52
		c-16.01-13.52-33.54-24.65-52.86-32.85c-3.61-1.53-7.99-4.18-10.48,0.87c-2.49,5.05,2.34,6.8,5.67,8.88"/>
	<path class="st0" d="M112.18,240.49c-2.89-0.41-4.31-2.89-5.99-6.14c-4.23-8.14-2.68-14.5,2.16-21.96
		c19.82-30.55,39.08-61.47,58.37-92.36c2.37-3.79,4.19-4.69,8.06-1.87c5.23,3.81,10.88,7.06,16.45,10.39
		c2.57,1.54,2.94,3.06,1.34,5.64c-20.97,33.77-41.83,67.62-62.91,101.33c-1.12,1.78-3.73,3.01-5.9,3.66
		C121.1,240,113.08,240.62,112.18,240.49z"/>
	<path class="st0" d="M244.91,87.18c-3.82,6.82-8.07,13.41-12.07,20.13c-1.66,2.8-3.35,3.14-5.93,0.97
		c-15.4-12.92-32.28-23.53-50.59-31.83c-3.13-1.42-4.11-2.93-2.05-6.01c4.62-6.92,8.98-14.02,13.7-20.87
		c3.23-4.69,7.97-6.18,13.59-5.39c17.83,2.51,32.68,10.03,42.65,25.53c0.78,1.21,2.31,4.29,2.5,7.63
		C246.92,81.43,245.65,85.86,244.91,87.18z"/>
	<path class="st0" d="M139.45,252.59c-2.44-3.87-4.98-6.87-6.25-10.34c-0.66-1.82,0.37-4.8,1.55-6.68
		c13.28-20.95,26.88-41.7,40.08-62.7c7.26-11.55,14.01-23.43,20.79-35.28c1.96-3.42,3.64-4.45,7.34-2.08
		c11.08,7.11,9.34,5.23,3.6,14.24c-20.73,32.56-41.74,64.94-62.68,97.36C142.75,248.84,141.27,250.35,139.45,252.59z"/>
	<path class="st0" d="M152.96,105.21c0.93,0.08,1.11,0.05,1.25,0.11c12.73,6.05,12.57,5.94,5.17,17.69
		c-18.8,29.84-37.63,59.66-55.96,89.78c-3.5,5.76-7.3,7.52-13.35,6.14c-1.77-0.4-3.58-0.62-6.21-1.07
		C104.65,178.6,129.91,142.6,152.96,105.21z"/>
	<path class="st0" d="M91.56,222.84c4.43,0.56,7.47,3.42,9.49,9.18c4.32,12.33,4.87,12.14,17.88,11.76c0.67-0.02,1.33-0.02,2-0.04
		c8.11-0.21,12.39,2.82,14.48,10.75c0.32,1.21-0.46,3.56-1.46,4.15c-9.29,5.49-18.68,10.84-28.22,15.88
		c-1.25,0.66-3.79-0.16-5.27-1.06c-5.79-3.52-11.5-7.21-17.02-11.14c-1.67-1.19-3.79-3.34-3.78-5.03c0.09-9.8,0.73-19.59,1.25-29.38
		c0.12-2.34,0.83-4.07,2.45-4.82C84.35,222.62,90.32,222.68,91.56,222.84z"/>
</g>
<g>
	<g>
		<path class="st0" d="M221.11,64.04c0.75,0.13,1.5,0.31,2.23,0.55c0.34,0.11,0.76,0.21,1.08,0.39c-0.27-0.16-0.25-0.11,0.02,0.01
			c0.17,0.08,0.35,0.16,0.52,0.25c0.66,0.32,1.29,0.69,1.9,1.1c0.32,0.21,0.63,0.44,0.93,0.67c-0.5-0.37,0.02,0.03,0.09,0.09
			c0.15,0.12,0.29,0.25,0.43,0.37c0.55,0.49,1.06,1.01,1.55,1.56c0.13,0.14,0.25,0.29,0.37,0.44c0.18,0.22,0.22,0.28,0.02,0.02
			c0.23,0.31,0.45,0.62,0.66,0.94c0.42,0.64,0.79,1.31,1.12,2c0.08,0.17,0.17,0.34,0.24,0.52c-0.15-0.39-0.06-0.13,0.03,0.11
			c0.13,0.36,0.25,0.72,0.36,1.09c0.37,1.25,1.77,2.17,3.08,1.75c1.27-0.41,2.15-1.73,1.75-3.08c-2.04-6.81-8-12.35-15.04-13.6
			c-1.28-0.23-2.76,0.35-3.08,1.75C219.08,62.18,219.73,63.8,221.11,64.04L221.11,64.04z"/>
	</g>
</g>
<path d="M234.31,72.25c0.38,0.4,0.75,0.82,1.11,1.25c0.11,0.13,0.21,0.26,0.32,0.4c-0.11-0.14-0.11-0.14-0.01,0
	c0.17,0.23,0.34,0.47,0.5,0.72c0.32,0.48,0.61,0.97,0.88,1.48c0.11,0.21,0.22,0.43,0.32,0.65c-0.19-0.42,0.12,0.31,0.15,0.4
	c0.17,0.49,0.28,0.98,0.4,1.48c0.05,0.3,0.05,0.31,0.02,0.03c0.02,0.16,0.03,0.31,0.04,0.47c0.02,0.24,0.02,0.48,0.02,0.71
	c0,0.24-0.02,0.48-0.04,0.72c0.04-0.49-0.09,0.46-0.11,0.56c-0.06,0.25-0.13,0.5-0.2,0.75c-0.04,0.11-0.33,0.86-0.24,0.66
	c-0.55,1.23-0.36,2.69,0.9,3.42c1.07,0.62,2.87,0.34,3.42-0.9c5.03-11.22-6.58-19.07-14.45-24.66c-1.1-0.78-2.78-0.2-3.42,0.9
	C223.18,62.54,231.33,69.1,234.31,72.25z"/>
</svg>
